The.Marathon.2012.DVDRip.XviD-EXViD

EXViD aims to iNTERNAL those releases which have been lost in the archives
EXViD aims to PRE non-internal releases which have poor sources and are likely skipped by others
 
http://www.imdb.com/title/tt2401621
Subtitles: EN, NL FD
Date: 2013.02

Director: Diederick Koopal

Genres: Comedy  Drama  Sport

Plot
Four jaded guys in their fifties try to save their garage by running the Rotterdam marathon
together.But for each of them there is more at stake than just reaching the finish

Cast
Stefan de Walle  ...  Gerard
Martin van Waardenberg  ...  Leo
Marcel Hensema  ...  Nico
Frank Lammers  ...  Kees
Mimoun Oassa
Cynthia Abma
Dragan Bakema  ...  Tony
Mahjoub Benmoussa  ...  Oom Houssein
Manuel Broekman  ...  Ken
John Buijsman  ...  Joop
Aat Ceelen  ...  Herman
Sofieke de Kater  ...  Zuster
Herman den Blijker  ...  Hermijn Blijker
Jung Sun den Hollander  ...  Rntgenoloog
Nanette Drazic  ...  Prostituee

Stats
Format                          : AVI
Format/Info                      : Audio Video Interleave
File size                        : 701 MiB
Duration                        : 1h 47mn
Overall bit rate                : 913 Kbps
Writing application              : VirtualDubMod 1.5.10.2 (build 2540/release
Writing library                  : VirtualDubMod build 2540/release

Video
ID                              : 0
Format                          : MPEG-4 Visual
Format profile                  : Advanced SimpleL5
Format settings, BVOP            : Yes
Format settings, QPel            : No
Format settings, GMC            : No warppoints
Format settings, Matrix          : Default (H.263
Muxing mode                      : Packed bitstream
Codec ID                        : XVID
Codec ID/Hint                    : XviD
Duration                        : 1h 47mn
Bit rate                        : 779 Kbps
Width                            : 624 pixels
Height                          : 256 pixels
Display aspect ratio            : 2.40:1
Frame rate                      : 25.000 fps
Color space                      : YUV
Chroma subsampling              : 4:2:0
Bit depth                        : 8 bits
Scan type                        : Progressive
Bits/(PixelFrame)              : 0.195
Stream size                      : 598 MiB (85
Writing library                  : XviD 64

Audio
ID                              : 1
Format                          : MPEG Audio
Format version                  : Version 1
Format profile                  : Layer 3
Mode                            : Joint stereo
Codec ID                        : 55
Codec ID/Hint                    : MP3
Duration                        : 1h 47mn
Bit rate mode                    : Variable
Bit rate                        : 121 Kbps
Minimum bit rate                : 128 Kbps
Channel(s)                      : 2 channels
Sampling rate                    : 48.0 KHz
Stream size                      : 92.9 MiB (13
Alignment                        : Aligned on interleaves
Interleave, duration            : 24 ms (0.60 video frame
Interleave, preload duration    : 518 ms
Writing library                  : LAME4.0a
Encoding settings                : -m j -V 4 -q 5 -lowpass 17.5 --vbr-old -b 128

Release notes
enjoy